# https://github.com/mikedh/trimesh
v -0.09669196 -0.41208392 -0.11150937
v -0.09669196 -0.41208392 0.03888204
v -0.09669196 0.39599554 -0.11150937
v -0.09669196 0.39599554 0.03888204
v 0.05583015 -0.41208392 -0.11150937
v 0.05583015 -0.41208392 0.03888204
v 0.05583015 0.39599554 -0.11150937
v 0.05583015 0.39599554 0.03888204
v -0.14840278 -0.42538700 -0.19365585
v -0.14840278 -0.42538700 -0.07469522
v -0.14840278 0.36496784 -0.19365585
v -0.14840278 0.36496784 -0.07469522
v 0.06750697 -0.42538700 -0.19365585
v 0.06750697 -0.42538700 -0.07469522
v 0.06750697 0.36496784 -0.19365585
v 0.06750697 0.36496784 -0.07469522
v -0.09852284 -0.42108013 0.02727668
v -0.09852284 -0.42108013 0.10124436
v -0.09852284 0.36594753 0.02727668
v -0.09852284 0.36594753 0.10124436
v 0.11612262 -0.42108013 0.02727668
v 0.11612262 -0.42108013 0.10124436
v 0.11612262 0.36594753 0.02727668
v 0.11612262 0.36594753 0.10124436
v -0.14816980 -0.42234419 -0.09333297
v -0.14816980 -0.42234419 0.08639535
v -0.14816980 0.39842433 -0.09333297
v -0.14816980 0.39842433 0.08639535
v -0.04366569 -0.42234419 -0.09333297
v -0.04366569 -0.42234419 0.08639535
v -0.04366569 0.39842433 -0.09333297
v -0.04366569 0.39842433 0.08639535
f 2 4 1
f 5 2 1
f 1 4 3
f 3 5 1
f 2 8 4
f 6 2 5
f 6 8 2
f 4 8 3
f 7 5 3
f 3 8 7
f 7 6 5
f 8 6 7
f 10 12 9
f 13 10 9
f 9 12 11
f 11 13 9
f 10 16 12
f 14 10 13
f 14 16 10
f 12 16 11
f 15 13 11
f 11 16 15
f 15 14 13
f 16 14 15
f 18 20 17
f 21 18 17
f 17 20 19
f 19 21 17
f 18 24 20
f 22 18 21
f 22 24 18
f 20 24 19
f 23 21 19
f 19 24 23
f 23 22 21
f 24 22 23
f 26 28 25
f 29 26 25
f 25 28 27
f 27 29 25
f 26 32 28
f 30 26 29
f 30 32 26
f 28 32 27
f 31 29 27
f 27 32 31
f 31 30 29
f 32 30 31

